<?xml version="1.0" encoding="UTF-8"?>
<svg width="1024" height="1024" viewBox="0 0 1024 1024" xmlns="http://www.w3.org/2000/svg">
  <defs>
    <linearGradient id="grad1" x1="0%" y1="0%" x2="100%" y2="100%">
      <stop offset="0%" style="stop-color:#667eea;stop-opacity:1" />
      <stop offset="100%" style="stop-color:#764ba2;stop-opacity:1" />
    </linearGradient>
  </defs>
  
  <!-- Background circle -->
  <circle cx="512" cy="512" r="480" fill="url(#grad1)" stroke="#4a5568" stroke-width="8"/>
  
  <!-- AI Symbol -->
  <g transform="translate(512,512)">
    <!-- Neural network nodes -->
    <circle cx="-120" cy="-80" r="20" fill="white" opacity="0.9"/>
    <circle cx="0" cy="-120" r="20" fill="white" opacity="0.9"/>
    <circle cx="120" cy="-80" r="20" fill="white" opacity="0.9"/>
    <circle cx="-80" cy="0" r="20" fill="white" opacity="0.9"/>
    <circle cx="80" cy="0" r="20" fill="white" opacity="0.9"/>
    <circle cx="-120" cy="80" r="20" fill="white" opacity="0.9"/>
    <circle cx="0" cy="120" r="20" fill="white" opacity="0.9"/>
    <circle cx="120" cy="80" r="20" fill="white" opacity="0.9"/>
    
    <!-- Connections -->
    <line x1="-120" y1="-80" x2="0" y2="-120" stroke="white" stroke-width="3" opacity="0.7"/>
    <line x1="0" y1="-120" x2="120" y2="-80" stroke="white" stroke-width="3" opacity="0.7"/>
    <line x1="-120" y1="-80" x2="-80" y2="0" stroke="white" stroke-width="3" opacity="0.7"/>
    <line x1="120" y1="-80" x2="80" y2="0" stroke="white" stroke-width="3" opacity="0.7"/>
    <line x1="-80" y1="0" x2="80" y2="0" stroke="white" stroke-width="3" opacity="0.7"/>
    <line x1="-80" y1="0" x2="-120" y2="80" stroke="white" stroke-width="3" opacity="0.7"/>
    <line x1="80" y1="0" x2="120" y2="80" stroke="white" stroke-width="3" opacity="0.7"/>
    <line x1="-120" y1="80" x2="0" y2="120" stroke="white" stroke-width="3" opacity="0.7"/>
    <line x1="0" y1="120" x2="120" y2="80" stroke="white" stroke-width="3" opacity="0.7"/>
    
    <!-- Center AI text -->
    <text x="0" y="10" text-anchor="middle" font-family="Arial, sans-serif" font-size="80" font-weight="bold" fill="white">AI</text>
  </g>
</svg>